# xmcd CD database file
#
# Track frame offsets:
#	150
#	15548
#	40040
#	59992
#	75662
#	93990
#	109296
#	124162
#	145042
#	159355
#	180890
#	197883
#	213760
#
# Disc length: 2930 seconds
#
# Revision: 0
# Processed by: cddbd v1.5.2PL0 Copyright (c) Steve Scherf et al.
# Submitted via: CDex 1.70beta2
#
DISCID=a80b700d
DTITLE=Chris Beier - Scarborough Variations
DYEAR=2018
DGENRE=Jazz
TTITLE0=Sacciapensieri
TTITLE1=Scarborough Variations
TTITLE2=Campane de l'alba
TTITLE3=Biscaya
TTITLE4=December Sun
TTITLE5=Ombra Serena
TTITLE6=Land of Dawn
TTITLE7=Waldgate
TTITLE8=Ionian Days
TTITLE9=Cloud
TTITLE10=Terra Rossa
TTITLE11=Sénanque
TTITLE12=Scarborough - Slight Return
EXTD=YEAR: 2018
EXTT0=
EXTT1=
EXTT2=
EXTT3=
EXTT4=
EXTT5=
EXTT6=
EXTT7=
EXTT8=
EXTT9=
EXTT10=
EXTT11=
EXTT12=
PLAYORDER=
